<svg width="55" height="55" viewBox="0 0 55 55" fill="none" xmlns="http://www.w3.org/2000/svg">
<path d="M27.7721 54.2866C42.6838 54.2866 54.7721 42.1983 54.7721 27.2866C54.7721 12.3749 42.6838 0.286621 27.7721 0.286621C12.8604 0.286621 0.772095 12.3749 0.772095 27.2866C0.772095 42.1983 12.8604 54.2866 27.7721 54.2866Z" fill="#3B2517"/>
<path fill-rule="evenodd" clip-rule="evenodd" d="M23.5881 36.5736C23.6011 36.5586 23.6171 36.5426 23.6331 36.5256C23.6291 36.5206 23.6251 36.5156 23.6271 36.5126C23.5691 36.5486 23.5061 36.6236 23.4481 36.6606C23.1951 36.8696 23.0021 37.2456 22.8141 37.4626C22.3211 36.8666 22.9891 36.1596 22.9531 35.3776C22.9131 34.5146 22.5251 33.6516 23.2711 33.1506C22.7651 34.2116 23.2391 35.3946 23.0361 36.4946C23.1221 36.6086 23.1711 36.5996 23.3161 36.6286C23.3091 36.6156 23.3021 36.6006 23.2951 36.5826C22.8711 36.1956 23.2821 35.6706 23.2971 35.1996C23.3071 34.8886 23.1201 34.5586 23.1411 34.2406C23.1621 33.9286 23.4071 33.5796 23.4831 33.1766C23.6491 32.2996 23.3511 31.3256 23.5681 30.6426C23.7281 30.1386 24.0871 29.7336 24.2671 29.2926C24.1451 30.5856 24.5521 32.2406 25.1241 33.4366C25.0311 31.9906 23.9751 30.2566 24.5311 28.8826C24.7811 28.2676 25.4271 27.6836 25.6611 27.0876C25.5521 27.8666 25.0921 28.6026 25.7551 29.4776C25.8031 28.9486 25.7711 28.4106 25.7831 27.8776C26.9631 26.8446 26.2291 25.2786 26.9531 24.3736C26.9281 25.2736 27.9151 26.5946 28.2711 27.3576C27.7191 25.3716 27.5281 23.4306 29.3681 21.7436C29.3381 21.0936 29.7521 20.2056 30.0851 19.7866C30.0311 20.8116 30.1581 22.1546 30.5601 23.0536C30.3021 21.7856 30.0041 20.2186 30.3151 19.2066C30.3861 19.8606 30.4711 20.8106 30.7671 21.3086C30.5501 20.2496 30.4771 18.9136 30.7171 18.0946C30.7901 18.5106 30.7771 19.2076 30.9871 19.4556C30.8581 18.6286 30.9371 17.8276 31.5901 17.0976C31.7561 17.3416 31.4921 17.8206 31.7121 17.8876C31.7201 17.2246 31.8021 16.2766 32.3821 15.8696C32.4221 16.1526 32.4071 16.7186 32.6451 16.8426C32.3631 15.9816 32.5851 14.9746 33.4601 14.5106C33.9831 14.2336 34.7721 14.7236 35.2121 14.2866C35.4771 14.3316 35.7111 14.6276 35.9641 14.7676C36.1671 15.0326 36.3691 15.2966 36.5711 15.5616C37.1501 17.3486 36.3121 18.9586 36.1301 20.6506C35.9401 20.8106 35.7871 20.9766 35.7461 21.1556C35.8241 21.1086 35.9081 21.0096 35.9721 21.0726C35.8461 21.7266 35.6291 22.3926 35.3611 23.0436C35.1031 23.6686 34.9611 24.4066 34.6441 24.9996C34.2571 25.7216 33.6471 26.3626 33.3101 27.1566C33.3711 27.9196 32.3051 28.5426 32.3541 29.3046C32.2351 29.5116 31.8991 29.6906 31.8511 29.9056C31.9291 29.8586 32.0131 29.7596 32.0771 29.8236C30.9141 30.9296 30.3131 32.3456 28.9211 33.2466C29.1701 33.2736 29.4731 32.8386 29.7431 32.6846C30.2051 32.4556 29.4931 32.9596 29.3131 33.1286C28.7821 33.6276 27.8641 34.1386 27.5251 34.5646C28.1431 34.3566 28.8251 33.6046 29.4531 33.3126C28.9371 33.9496 27.7231 34.7286 27.2351 35.1926C27.5201 35.2126 27.8401 34.9356 28.1241 34.9716C26.9451 35.9716 25.8221 36.4926 24.7751 36.3796C24.9551 36.0516 25.2921 35.7436 25.4821 35.4166C25.8061 35.4296 26.4141 35.4316 26.5841 35.2226C26.2381 35.2626 25.8771 35.4276 25.5551 35.2596C26.7131 33.9106 27.5691 32.5246 28.5761 31.1566C29.3001 31.1146 30.3251 30.9496 30.9371 30.3446C30.1371 30.7256 29.3531 30.9666 28.5891 31.0476C29.5031 29.6606 30.3201 28.2406 31.0591 26.8066C31.7681 26.5036 32.7471 25.9206 33.3491 25.3936C32.6881 25.8086 32.0091 26.1636 31.2961 26.3426C31.8791 25.1816 32.4131 24.0136 32.9041 22.8476C34.0601 20.1016 35.0061 17.2816 35.1991 14.3956C34.9171 15.6896 34.5771 16.9766 34.1761 18.2566C33.9721 18.8666 33.7131 19.5856 33.3751 20.4216C33.2261 19.0906 33.0231 18.9946 32.8071 18.5686C33.1111 19.1826 33.2681 19.9736 33.1381 20.9966C32.4751 22.5686 31.5461 24.5166 30.2121 26.8976C30.0761 27.1446 29.8421 27.5216 29.5481 27.9796C29.2801 26.9736 29.1901 25.8956 29.1621 24.7996C29.0611 25.8756 29.0911 27.3886 29.2401 28.4546C27.6591 30.8726 24.9401 34.7776 24.9561 34.8536C24.8021 34.9496 24.9001 34.6356 24.8291 34.5616C24.6671 34.5626 24.9901 35.0946 24.5851 35.2496C24.6011 35.2656 24.6201 35.2686 24.6391 35.2656C24.5911 35.3266 24.5451 35.3866 24.4991 35.4436C24.4871 35.4396 24.4721 35.4416 24.4531 35.4546C24.1941 35.7356 24.0001 36.0246 23.7591 36.3076C23.6721 36.3576 23.6711 36.4176 23.7021 36.4286C23.6861 36.4466 23.6771 36.4666 23.6701 36.4846C23.6861 36.4676 23.7031 36.4486 23.7211 36.4286C23.7291 36.4266 23.7371 36.4236 23.7461 36.4166C23.8841 36.2736 24.0061 36.1266 24.1211 35.9806C25.2411 34.7026 30.1711 27.1636 30.1831 27.1436C32.4271 23.3856 33.7851 19.6526 34.9331 16.1876C33.5981 22.3816 30.3391 28.7946 25.9511 34.6456C25.1311 35.7396 24.2711 36.8996 23.3341 37.9936C23.6211 37.7376 23.9461 37.2646 24.2801 37.3686C23.9711 37.6596 23.6481 38.0156 23.2751 38.0616C22.2231 39.2826 21.0741 40.4186 19.7721 41.2866C20.5301 39.6506 22.5661 38.1756 23.5881 36.5736ZM34.5591 21.6156C34.9011 21.6196 35.2631 21.4426 35.6401 21.1426C35.2851 21.2616 34.9221 21.4376 34.5591 21.6156ZM29.2431 22.3356C29.0371 22.4296 29.0981 23.4916 29.0501 23.9706C29.2301 23.6606 29.1621 22.8426 29.2431 22.3356Z" fill="white"/>
</svg>
