<svg width="55" height="55" viewBox="0 0 55 55" fill="none" xmlns="http://www.w3.org/2000/svg">
<path d="M27.6721 54.2866C42.5838 54.2866 54.6721 42.1983 54.6721 27.2866C54.6721 12.3749 42.5838 0.286621 27.6721 0.286621C12.7604 0.286621 0.672073 12.3749 0.672073 27.2866C0.672073 42.1983 12.7604 54.2866 27.6721 54.2866Z" fill="#3B2517"/>
<path fill-rule="evenodd" clip-rule="evenodd" d="M36.4961 32.1006H18.8481C18.1991 32.1006 17.6721 31.5626 17.6721 30.8996V19.4876C17.6721 18.8246 18.1991 18.2866 18.8481 18.2866H36.4961C37.1451 18.2866 37.6721 18.8246 37.6721 19.4876V30.8996C37.6721 31.5626 37.1451 32.1006 36.4961 32.1006ZM27.3571 31.5406C27.4131 31.6416 27.4711 31.6926 27.5291 31.6926C27.5491 31.6926 27.5741 31.6856 27.6051 31.6726C27.6361 31.6596 27.6641 31.6526 27.6871 31.6526C27.7111 31.6526 27.7401 31.6586 27.7741 31.6716C27.8081 31.6846 27.8351 31.6906 27.8541 31.6906C27.9031 31.6906 27.9521 31.6526 28.0021 31.5756C28.0351 31.5246 28.0581 31.4756 28.0731 31.4286C28.0391 31.4186 28.0081 31.3936 27.9821 31.3546C27.9551 31.3156 27.9421 31.2726 27.9421 31.2236C27.9421 31.1796 27.9551 31.1386 27.9801 31.1026C27.9941 31.0826 28.0151 31.0596 28.0451 31.0336C28.0251 31.0086 28.0051 30.9886 27.9851 30.9746C27.9491 30.9496 27.9091 30.9366 27.8631 30.9366C27.8351 30.9366 27.8021 30.9436 27.7631 30.9566C27.7251 30.9696 27.6981 30.9766 27.6811 30.9766C27.6681 30.9766 27.6421 30.9706 27.6021 30.9586C27.5621 30.9466 27.5281 30.9416 27.5001 30.9416C27.4341 30.9416 27.3801 30.9696 27.3371 31.0256C27.2941 31.0826 27.2721 31.1556 27.2721 31.2446C27.2721 31.3416 27.3001 31.4396 27.3571 31.5406ZM27.8561 30.7406C27.8561 30.7366 27.8561 30.7326 27.8561 30.7286C27.8551 30.7256 27.8551 30.7206 27.8531 30.7156C27.7861 30.7316 27.7381 30.7606 27.7091 30.8026C27.6801 30.8446 27.6661 30.8956 27.6651 30.9536C27.6911 30.9506 27.7111 30.9476 27.7241 30.9436C27.7451 30.9366 27.7651 30.9226 27.7861 30.9006C27.8111 30.8766 27.8281 30.8496 27.8401 30.8206C27.8511 30.7916 27.8561 30.7646 27.8561 30.7406ZM36.4961 19.4876H18.8481V30.2986H36.4961V19.4876ZM24.7311 35.1036V32.7056L30.5641 32.6886V35.0536C30.5641 35.0536 31.4961 35.5416 31.7411 35.7926C31.9861 36.0426 31.2011 36.2926 31.2011 36.2926H23.9961C23.3581 36.2926 23.6031 35.6916 23.6031 35.6916L24.7311 35.1036Z" fill="white"/>
</svg>
