<svg width="13" height="14" viewBox="0 0 13 14" fill="none" xmlns="http://www.w3.org/2000/svg">
<path d="M5.66425 6.69531C5.66425 6.88281 5.74758 7.06641 5.91425 7.24609C6.08091 7.42578 6.28274 7.60286 6.51971 7.77734C6.75669 7.95182 6.99237 8.14323 7.22675 8.35156C7.46112 8.5599 7.66164 8.83073 7.82831 9.16406C7.99497 9.4974 8.07831 9.86719 8.07831 10.2734C8.07831 10.7422 7.95331 11.1927 7.70331 11.625C7.32831 12.2604 6.77883 12.7279 6.05487 13.0273C5.33091 13.3268 4.55487 13.4766 3.72675 13.4766C3.03925 13.4766 2.39732 13.3685 1.80096 13.1523C1.20461 12.9362 0.757996 12.5781 0.461121 12.0781C0.268412 11.7656 0.172058 11.4245 0.172058 11.0547C0.172058 10.6328 0.287944 10.2422 0.519714 9.88281C0.751485 9.52344 1.06008 9.22396 1.4455 8.98438C2.12779 8.55729 3.17987 8.29688 4.60175 8.20312C4.43508 7.98438 4.31138 7.79167 4.23065 7.625C4.14992 7.45833 4.10956 7.26823 4.10956 7.05469C4.10956 6.86719 4.16425 6.64583 4.27362 6.39062C4.03404 6.41146 3.85695 6.42188 3.74237 6.42188C2.97154 6.42188 2.3218 6.17057 1.79315 5.66797C1.26451 5.16536 1.00018 4.52865 1.00018 3.75781C1.00018 3.33073 1.09393 2.91667 1.28143 2.51562C1.46893 2.11458 1.72675 1.77344 2.05487 1.49219C2.45591 1.14844 2.93117 0.893229 3.48065 0.726562C4.03013 0.559896 4.59654 0.476562 5.17987 0.476562H8.4455L7.36737 1.16406H6.34393C6.72935 1.49219 7.02102 1.83854 7.21893 2.20312C7.41685 2.56771 7.51581 2.98438 7.51581 3.45312C7.51581 3.82812 7.45201 4.16536 7.3244 4.46484C7.1968 4.76432 7.04315 5.00651 6.86346 5.19141C6.68378 5.3763 6.50279 5.54557 6.3205 5.69922C6.1382 5.85286 5.98326 6.01302 5.85565 6.17969C5.72805 6.34635 5.66425 6.51823 5.66425 6.69531ZM4.52362 5.94531C4.72154 5.94531 4.92466 5.90234 5.133 5.81641C5.34133 5.73047 5.5132 5.61719 5.64862 5.47656C5.92466 5.17969 6.06268 4.76562 6.06268 4.23438C6.06268 3.93229 6.01841 3.60677 5.92987 3.25781C5.84133 2.90885 5.71503 2.57161 5.55096 2.24609C5.3869 1.92057 5.16685 1.65104 4.89081 1.4375C4.61477 1.22396 4.31008 1.11719 3.97675 1.11719C3.758 1.11719 3.54315 1.16797 3.33221 1.26953C3.12128 1.37109 2.9507 1.50781 2.8205 1.67969C2.5757 1.98698 2.45331 2.40365 2.45331 2.92969C2.45331 3.16927 2.47935 3.42318 2.53143 3.69141C2.58352 3.95964 2.66555 4.22786 2.77753 4.49609C2.88951 4.76432 3.02492 5.00521 3.18378 5.21875C3.34263 5.43229 3.53794 5.60677 3.76971 5.74219C4.00149 5.8776 4.25279 5.94531 4.52362 5.94531ZM4.53925 12.7656C4.84133 12.7656 5.13169 12.7318 5.41034 12.6641C5.68899 12.5964 5.9468 12.4948 6.18378 12.3594C6.42076 12.224 6.61086 12.0339 6.75409 11.7891C6.89732 11.5443 6.96893 11.2604 6.96893 10.9375C6.96893 10.8073 6.9507 10.6797 6.91425 10.5547C6.87779 10.4297 6.84003 10.3203 6.80096 10.2266C6.7619 10.1328 6.69159 10.0247 6.59003 9.90234C6.48846 9.77995 6.41164 9.6888 6.35956 9.62891C6.30747 9.56901 6.20721 9.47917 6.05878 9.35938C5.91034 9.23958 5.81529 9.16406 5.77362 9.13281C5.73195 9.10156 5.62388 9.02344 5.4494 8.89844C5.27492 8.77344 5.17987 8.70573 5.16425 8.69531C5.08091 8.6849 4.95591 8.67969 4.78925 8.67969C4.5132 8.67969 4.23977 8.69792 3.96893 8.73438C3.6981 8.77083 3.41815 8.83594 3.12909 8.92969C2.84003 9.02344 2.58742 9.14323 2.37128 9.28906C2.15513 9.4349 1.97675 9.62891 1.83612 9.87109C1.6955 10.1133 1.62518 10.388 1.62518 10.6953C1.62518 11.0599 1.71633 11.3815 1.89862 11.6602C2.08091 11.9388 2.31919 12.1549 2.61346 12.3086C2.90774 12.4622 3.21763 12.5768 3.54315 12.6523C3.86867 12.7279 4.2007 12.7656 4.53925 12.7656ZM10.8674 5.92188H12.5314V6.76562H10.8674V8.47656H10.0471V6.76562H8.39081V5.92188H10.0471V4.22656H10.8674V5.92188Z" fill="#EBEBEB"/>
</svg>
