<svg width="13" height="13" viewBox="0 0 13 13" fill="none" xmlns="http://www.w3.org/2000/svg">
<path d="M3.00867 4.35938V12.1016H0.430542V4.35938H3.00867ZM3.17273 1.96875C3.17794 2.34896 3.04643 2.66667 2.7782 2.92188C2.50997 3.17708 2.1571 3.30469 1.7196 3.30469H1.70398C1.2769 3.30469 0.933146 3.17708 0.672729 2.92188C0.412313 2.66667 0.282104 2.34896 0.282104 1.96875C0.282104 1.58333 0.416219 1.26432 0.684448 1.01172C0.952677 0.759114 1.30294 0.632812 1.73523 0.632812C2.16752 0.632812 2.51388 0.759114 2.77429 1.01172C3.03471 1.26432 3.16752 1.58333 3.17273 1.96875ZM12.2821 7.66406V12.1016H9.71179V7.96094C9.71179 7.41406 9.60632 6.98568 9.39539 6.67578C9.18445 6.36589 8.85502 6.21094 8.4071 6.21094C8.07898 6.21094 7.80424 6.30078 7.58289 6.48047C7.36153 6.66016 7.19617 6.88281 7.08679 7.14844C7.0295 7.30469 7.00085 7.51562 7.00085 7.78125V12.1016H4.43054C4.44096 10.0234 4.44617 8.33854 4.44617 7.04688C4.44617 5.75521 4.44356 4.98438 4.43835 4.73438L4.43054 4.35938H7.00085V5.48438H6.98523C7.0894 5.31771 7.19617 5.17188 7.30554 5.04688C7.41492 4.92188 7.56205 4.78646 7.74695 4.64062C7.93184 4.49479 8.15841 4.38151 8.42664 4.30078C8.69487 4.22005 8.99304 4.17969 9.32117 4.17969C10.2118 4.17969 10.9279 4.47526 11.4696 5.06641C12.0113 5.65755 12.2821 6.52344 12.2821 7.66406Z" fill="#EBEBEB"/>
</svg>
