<svg width="55" height="55" viewBox="0 0 55 55" fill="none" xmlns="http://www.w3.org/2000/svg">
<path d="M27.6721 54.2866C42.5837 54.2866 54.6721 42.1983 54.6721 27.2866C54.6721 12.3749 42.5837 0.286621 27.6721 0.286621C12.7604 0.286621 0.672058 12.3749 0.672058 27.2866C0.672058 42.1983 12.7604 54.2866 27.6721 54.2866Z" fill="#3B2517"/>
<path fill-rule="evenodd" clip-rule="evenodd" d="M31.9151 17.9057C31.9151 17.9057 29.2291 21.1377 27.1691 23.6807C27.4461 24.0037 26.8481 25.1937 26.8481 25.1937C26.8481 25.1937 26.1731 25.9017 25.3671 25.9057C24.8151 26.5877 24.6651 26.8567 24.6651 26.8567L21.4291 23.5377C21.4291 23.5377 21.7571 23.2647 22.2841 22.8237C22.4781 22.6617 22.0771 22.1087 23.0581 21.2697C23.0581 21.2697 23.5251 20.4717 24.5891 20.7077C27.0661 18.6397 30.6321 15.6257 30.6321 15.6257C34.1251 13.0287 34.6471 13.2947 34.6471 13.2947C34.9231 13.3257 33.0081 16.4707 31.9151 17.9057ZM14.6821 30.2107C14.6821 30.2107 17.9511 30.6297 17.9511 27.5287C17.9511 24.4277 21.1301 24.2357 21.1301 24.2357L24.1741 27.3017C21.3141 33.9657 14.6821 30.2107 14.6821 30.2107Z" fill="white"/>
<path fill-rule="evenodd" clip-rule="evenodd" d="M37.5831 26.6207C37.2591 27.0727 32.3761 32.3257 32.3761 32.3257L31.7201 31.7287L36.7831 26.4937C36.7831 26.4937 36.6431 25.8147 36.3121 26.2367L25.2431 37.4757L22.8371 34.8577L34.5301 23.5957C34.9271 22.9187 35.4691 23.5557 35.4691 23.5557C35.6271 23.5737 37.2991 25.5727 37.2991 25.5727C37.2991 25.5727 37.8811 26.2057 37.5831 26.6207ZM22.6161 40.6257L18.1811 42.2857L20.2921 40.1657C20.6561 40.3197 21.1821 40.2187 21.4791 39.9237C21.8701 39.5357 21.8701 38.9057 21.4791 38.5167C21.0891 38.1287 20.4251 38.0987 20.0351 38.4877C19.7441 38.7767 19.6251 39.3047 19.7671 39.6617L17.6641 41.8147C18.0531 40.4397 19.3711 37.0757 19.3711 37.0757L22.3561 35.5057L24.6741 37.8677L22.6161 40.6257Z" fill="white"/>
</svg>
