<svg width="13" height="11" viewBox="0 0 13 11" fill="none" xmlns="http://www.w3.org/2000/svg">
<path d="M12.7046 1.66406C12.3556 2.17448 11.9338 2.60938 11.439 2.96875C11.4442 3.04167 11.4468 3.15104 11.4468 3.29688C11.4468 3.97396 11.3478 4.64974 11.1499 5.32422C10.952 5.9987 10.6512 6.64583 10.2476 7.26562C9.84391 7.88542 9.36344 8.43359 8.80615 8.91016C8.24886 9.38672 7.57699 9.76693 6.79053 10.0508C6.00407 10.3346 5.16292 10.4766 4.26709 10.4766C2.85563 10.4766 1.56396 10.099 0.39209 9.34375C0.574382 9.36458 0.777507 9.375 1.00146 9.375C2.17334 9.375 3.21761 9.01562 4.13428 8.29688C3.5874 8.28646 3.09782 8.11849 2.66553 7.79297C2.23324 7.46745 1.93636 7.05208 1.7749 6.54688C1.94678 6.57292 2.10563 6.58594 2.25146 6.58594C2.47542 6.58594 2.69678 6.55729 2.91553 6.5C2.33219 6.38021 1.84912 6.08984 1.46631 5.62891C1.0835 5.16797 0.89209 4.63281 0.89209 4.02344V3.99219C1.24626 4.1901 1.62646 4.29688 2.03271 4.3125C1.68896 4.08333 1.41553 3.78385 1.2124 3.41406C1.00928 3.04427 0.907715 2.64323 0.907715 2.21094C0.907715 1.7526 1.0223 1.32812 1.25146 0.9375C1.88167 1.71354 2.6486 2.33464 3.55225 2.80078C4.45589 3.26693 5.42334 3.52604 6.45459 3.57812C6.41292 3.38021 6.39209 3.1875 6.39209 3C6.39209 2.30208 6.63818 1.70703 7.13037 1.21484C7.62256 0.722656 8.21761 0.476562 8.91553 0.476562C9.64469 0.476562 10.2593 0.742188 10.7593 1.27344C11.327 1.16406 11.8608 0.960938 12.3608 0.664062C12.1681 1.26302 11.7983 1.72656 11.2515 2.05469C11.7358 2.0026 12.2202 1.8724 12.7046 1.66406Z" fill="#EBEBEB"/>
</svg>
